<mxfile host="65bd71144e">
    <diagram id="vQG2rVUmP_15jDssrkWm" name="Page-1">
        <mxGraphModel dx="479" dy="472" grid="1" gridSize="10" guides="1" tooltips="1" connect="1" arrows="1" fold="1" page="1" pageScale="1" pageWidth="850" pageHeight="1100" math="0" shadow="0">
            <root>
                <mxCell id="0"/>
                <mxCell id="1" parent="0"/>
                <mxCell id="34" value="" style="rounded=0;whiteSpace=wrap;html=1;" parent="1" vertex="1">
                    <mxGeometry x="160" y="70" width="580" height="260" as="geometry"/>
                </mxCell>
                <mxCell id="85" style="edgeStyle=none;html=1;entryX=0;entryY=0.25;entryDx=0;entryDy=0;startArrow=ERzeroToMany;startFill=0;endArrow=oval;endFill=0;exitX=1;exitY=0.25;exitDx=0;exitDy=0;" edge="1" parent="1" source="38" target="81">
                    <mxGeometry relative="1" as="geometry"/>
                </mxCell>
                <mxCell id="38" value="車両型式" style="swimlane;fontStyle=0;childLayout=stackLayout;horizontal=1;startSize=26;fillColor=none;horizontalStack=0;resizeParent=1;resizeParentMax=0;resizeLast=0;collapsible=0;marginBottom=0;swimlaneLine=1;strokeColor=default;connectable=1;allowArrows=1;" parent="1" vertex="1">
                    <mxGeometry x="390" y="100" width="90" height="52" as="geometry">
                        <mxRectangle x="390" y="120" width="80" height="26" as="alternateBounds"/>
                    </mxGeometry>
                </mxCell>
                <mxCell id="46" value="コード" style="text;strokeColor=none;fillColor=none;align=left;verticalAlign=top;spacingLeft=4;spacingRight=4;overflow=hidden;rotatable=0;points=[[0,0.5],[1,0.5]];portConstraint=eastwest;" parent="38" vertex="1">
                    <mxGeometry y="26" width="90" height="26" as="geometry"/>
                </mxCell>
                <mxCell id="66" style="edgeStyle=none;html=1;entryX=0;entryY=0.25;entryDx=0;entryDy=0;startArrow=ERzeroToMany;startFill=0;endArrow=oval;endFill=0;exitX=1.02;exitY=0.125;exitDx=0;exitDy=0;exitPerimeter=0;" parent="1" source="64" target="38" edge="1">
                    <mxGeometry relative="1" as="geometry"/>
                </mxCell>
                <mxCell id="64" value="中古車" style="swimlane;fontStyle=0;childLayout=stackLayout;horizontal=1;startSize=26;fillColor=none;horizontalStack=0;resizeParent=1;resizeParentMax=0;resizeLast=0;collapsible=0;marginBottom=0;swimlaneLine=1;strokeColor=default;connectable=1;allowArrows=1;" parent="1" vertex="1">
                    <mxGeometry x="210" y="100" width="100" height="104" as="geometry">
                        <mxRectangle x="390" y="120" width="80" height="26" as="alternateBounds"/>
                    </mxGeometry>
                </mxCell>
                <mxCell id="65" value="走行距離" style="text;strokeColor=none;fillColor=none;align=left;verticalAlign=top;spacingLeft=4;spacingRight=4;overflow=hidden;rotatable=0;points=[[0,0.5],[1,0.5]];portConstraint=eastwest;" parent="64" vertex="1">
                    <mxGeometry y="26" width="100" height="26" as="geometry"/>
                </mxCell>
                <mxCell id="76" value="仕入価格" style="text;strokeColor=none;fillColor=none;align=left;verticalAlign=top;spacingLeft=4;spacingRight=4;overflow=hidden;rotatable=0;points=[[0,0.5],[1,0.5]];portConstraint=eastwest;" parent="64" vertex="1">
                    <mxGeometry y="52" width="100" height="26" as="geometry"/>
                </mxCell>
                <mxCell id="77" value="販売価格" style="text;strokeColor=none;fillColor=none;align=left;verticalAlign=top;spacingLeft=4;spacingRight=4;overflow=hidden;rotatable=0;points=[[0,0.5],[1,0.5]];portConstraint=eastwest;" parent="64" vertex="1">
                    <mxGeometry y="78" width="100" height="26" as="geometry"/>
                </mxCell>
                <mxCell id="81" value="ボディタイプ" style="swimlane;fontStyle=0;childLayout=stackLayout;horizontal=1;startSize=26;fillColor=none;horizontalStack=0;resizeParent=1;resizeParentMax=0;resizeLast=0;collapsible=0;marginBottom=0;swimlaneLine=1;strokeColor=default;connectable=1;allowArrows=1;" vertex="1" parent="1">
                    <mxGeometry x="610" y="100" width="80" height="52" as="geometry">
                        <mxRectangle x="390" y="120" width="80" height="26" as="alternateBounds"/>
                    </mxGeometry>
                </mxCell>
                <mxCell id="82" value="名称" style="text;strokeColor=none;fillColor=none;align=left;verticalAlign=top;spacingLeft=4;spacingRight=4;overflow=hidden;rotatable=0;points=[[0,0.5],[1,0.5]];portConstraint=eastwest;" vertex="1" parent="81">
                    <mxGeometry y="26" width="80" height="26" as="geometry"/>
                </mxCell>
                <mxCell id="83" value="愛称" style="swimlane;fontStyle=0;childLayout=stackLayout;horizontal=1;startSize=26;fillColor=none;horizontalStack=0;resizeParent=1;resizeParentMax=0;resizeLast=0;collapsible=0;marginBottom=0;swimlaneLine=1;strokeColor=default;connectable=1;allowArrows=1;" vertex="1" parent="1">
                    <mxGeometry x="620" y="230" width="60" height="52" as="geometry">
                        <mxRectangle x="390" y="120" width="80" height="26" as="alternateBounds"/>
                    </mxGeometry>
                </mxCell>
                <mxCell id="84" value="名称" style="text;strokeColor=none;fillColor=none;align=left;verticalAlign=top;spacingLeft=4;spacingRight=4;overflow=hidden;rotatable=0;points=[[0,0.5],[1,0.5]];portConstraint=eastwest;" vertex="1" parent="83">
                    <mxGeometry y="26" width="60" height="26" as="geometry"/>
                </mxCell>
                <mxCell id="86" style="edgeStyle=none;html=1;entryX=0;entryY=0.25;entryDx=0;entryDy=0;exitX=1;exitY=0.5;exitDx=0;exitDy=0;startArrow=ERzeroToMany;startFill=0;endArrow=oval;endFill=0;" edge="1" parent="1" source="46" target="83">
                    <mxGeometry relative="1" as="geometry"/>
                </mxCell>
            </root>
        </mxGraphModel>
    </diagram>
</mxfile>